%TF.GenerationSoftware,KiCad,Pcbnew,8.0.0*%
%TF.CreationDate,2024-03-07T19:06:56-03:00*%
%TF.ProjectId,Fuente Regulada 5V,4675656e-7465-4205-9265-67756c616461,rev?*%
%TF.SameCoordinates,Original*%
%TF.FileFunction,Copper,L2,Bot*%
%TF.FilePolarity,Positive*%
%FSLAX46Y46*%
G04 Gerber Fmt 4.6, Leading zero omitted, Abs format (unit mm)*
G04 Created by KiCad (PCBNEW 8.0.0) date 2024-03-07 19:06:56*
%MOMM*%
%LPD*%
G01*
G04 APERTURE LIST*
G04 Aperture macros list*
%AMRoundRect*
0 Rectangle with rounded corners*
0 $1 Rounding radius*
0 $2 $3 $4 $5 $6 $7 $8 $9 X,Y pos of 4 corners*
0 Add a 4 corners polygon primitive as box body*
4,1,4,$2,$3,$4,$5,$6,$7,$8,$9,$2,$3,0*
0 Add four circle primitives for the rounded corners*
1,1,$1+$1,$2,$3*
1,1,$1+$1,$4,$5*
1,1,$1+$1,$6,$7*
1,1,$1+$1,$8,$9*
0 Add four rect primitives between the rounded corners*
20,1,$1+$1,$2,$3,$4,$5,0*
20,1,$1+$1,$4,$5,$6,$7,0*
20,1,$1+$1,$6,$7,$8,$9,0*
20,1,$1+$1,$8,$9,$2,$3,0*%
G04 Aperture macros list end*
%TA.AperFunction,ComponentPad*%
%ADD10O,4.020000X2.410000*%
%TD*%
%TA.AperFunction,ComponentPad*%
%ADD11R,4.020000X2.410000*%
%TD*%
%TA.AperFunction,WasherPad*%
%ADD12C,2.300000*%
%TD*%
%TA.AperFunction,ComponentPad*%
%ADD13RoundRect,0.250000X-0.845000X0.620000X-0.845000X-0.620000X0.845000X-0.620000X0.845000X0.620000X0*%
%TD*%
%TA.AperFunction,ComponentPad*%
%ADD14O,2.190000X1.740000*%
%TD*%
%TA.AperFunction,ComponentPad*%
%ADD15R,2.000000X1.905000*%
%TD*%
%TA.AperFunction,ComponentPad*%
%ADD16O,2.000000X1.905000*%
%TD*%
%TA.AperFunction,ComponentPad*%
%ADD17R,1.600000X1.600000*%
%TD*%
%TA.AperFunction,ComponentPad*%
%ADD18O,1.600000X1.600000*%
%TD*%
%TA.AperFunction,ComponentPad*%
%ADD19O,2.400000X2.400000*%
%TD*%
%TA.AperFunction,ComponentPad*%
%ADD20C,2.400000*%
%TD*%
%TA.AperFunction,ComponentPad*%
%ADD21C,1.800000*%
%TD*%
%TA.AperFunction,ComponentPad*%
%ADD22R,1.800000X1.800000*%
%TD*%
%TA.AperFunction,ComponentPad*%
%ADD23C,1.600000*%
%TD*%
%TA.AperFunction,Conductor*%
%ADD24C,0.500000*%
%TD*%
%TA.AperFunction,Profile*%
%ADD25C,0.050000*%
%TD*%
G04 APERTURE END LIST*
D10*
%TO.P,BAT1,2,-*%
%TO.N,Net-(BAT1--)*%
X80805000Y-95880000D03*
D11*
%TO.P,BAT1,1,+*%
%TO.N,Net-(BAT1-+)*%
X93685000Y-95880000D03*
D12*
%TO.P,BAT1,*%
%TO.N,*%
X76065000Y-135140000D03*
X98415000Y-121660000D03*
X76065000Y-108170000D03*
%TD*%
D13*
%TO.P,OUT1,1,Pin_1*%
%TO.N,Net-(D1-A)*%
X101680000Y-68430000D03*
D14*
%TO.P,OUT1,2,Pin_2*%
%TO.N,Net-(BAT1--)*%
X101680000Y-70970000D03*
%TD*%
D15*
%TO.P,U1,1,VI*%
%TO.N,Net-(SW1A-B)*%
X88845000Y-77940000D03*
D16*
%TO.P,U1,2,GND*%
%TO.N,Net-(BAT1--)*%
X88845000Y-75400000D03*
%TO.P,U1,3,VO*%
%TO.N,Net-(D1-A)*%
X88845000Y-72860000D03*
%TD*%
D17*
%TO.P,SW1,1,A*%
%TO.N,Net-(BAT1-+)*%
X93732500Y-90000000D03*
D18*
%TO.P,SW1,2,B*%
%TO.N,Net-(SW1A-B)*%
X101352500Y-90000000D03*
%TD*%
D19*
%TO.P,R1,2*%
%TO.N,Net-(BAT1--)*%
X73060000Y-90350000D03*
D20*
%TO.P,R1,1*%
%TO.N,Net-(D1-K)*%
X73060000Y-77650000D03*
%TD*%
D21*
%TO.P,D1,2,A*%
%TO.N,Net-(D1-A)*%
X75565000Y-72800000D03*
D22*
%TO.P,D1,1,K*%
%TO.N,Net-(D1-K)*%
X73025000Y-72800000D03*
%TD*%
D17*
%TO.P,C2,1*%
%TO.N,Net-(D1-A)*%
X80900000Y-72817618D03*
D23*
%TO.P,C2,2*%
%TO.N,Net-(BAT1--)*%
X80900000Y-75317618D03*
%TD*%
%TO.P,C1,2*%
%TO.N,Net-(BAT1--)*%
X80782380Y-88800000D03*
D17*
%TO.P,C1,1*%
%TO.N,Net-(SW1A-B)*%
X83282380Y-88800000D03*
%TD*%
D24*
%TO.N,Net-(SW1A-B)*%
X101352500Y-79502500D02*
X101352500Y-90000000D01*
X99790000Y-77940000D02*
X101352500Y-79502500D01*
X88845000Y-77940000D02*
X99790000Y-77940000D01*
%TO.N,Net-(BAT1--)*%
X92205000Y-75475000D02*
X96635000Y-71045000D01*
X88850000Y-75475000D02*
X92205000Y-75475000D01*
X96635000Y-71045000D02*
X101685000Y-71045000D01*
%TO.N,Net-(D1-A)*%
X96630000Y-68430000D02*
X101680000Y-68430000D01*
X92200000Y-72860000D02*
X96630000Y-68430000D01*
X88845000Y-72860000D02*
X92200000Y-72860000D01*
%TO.N,Net-(BAT1-+)*%
X93685000Y-90047500D02*
X93732500Y-90000000D01*
X93685000Y-95880000D02*
X93685000Y-90047500D01*
%TO.N,Net-(SW1A-B)*%
X84840000Y-77940000D02*
X88845000Y-77940000D01*
X83282380Y-79497620D02*
X84840000Y-77940000D01*
X83282380Y-88800000D02*
X83282380Y-79497620D01*
%TO.N,Net-(BAT1--)*%
X80782380Y-75435238D02*
X80900000Y-75317618D01*
X80782380Y-88800000D02*
X80782380Y-75435238D01*
X88762618Y-75317618D02*
X88845000Y-75400000D01*
X80900000Y-75317618D02*
X88762618Y-75317618D01*
%TO.N,Net-(D1-A)*%
X88802618Y-72817618D02*
X88845000Y-72860000D01*
X80900000Y-72817618D02*
X88802618Y-72817618D01*
X80882382Y-72800000D02*
X80900000Y-72817618D01*
X75565000Y-72800000D02*
X80882382Y-72800000D01*
%TO.N,Net-(D1-K)*%
X73060000Y-72835000D02*
X73025000Y-72800000D01*
X73060000Y-77650000D02*
X73060000Y-72835000D01*
%TO.N,Net-(BAT1--)*%
X77700000Y-88800000D02*
X76150000Y-90350000D01*
X80782380Y-88800000D02*
X77700000Y-88800000D01*
X76150000Y-90350000D02*
X73060000Y-90350000D01*
X80805000Y-88822620D02*
X80782380Y-88800000D01*
X80805000Y-95880000D02*
X80805000Y-88822620D01*
%TD*%
%TA.AperFunction,NonConductor*%
G36*
X87519829Y-73587803D02*
G01*
X87553108Y-73619232D01*
X87554782Y-73621536D01*
X87554783Y-73621538D01*
X87689214Y-73806566D01*
X87850934Y-73968286D01*
X87920423Y-74018773D01*
X87935438Y-74029682D01*
X87978103Y-74085013D01*
X87984082Y-74154626D01*
X87951476Y-74216421D01*
X87935438Y-74230318D01*
X87850932Y-74291715D01*
X87689210Y-74453437D01*
X87643756Y-74516002D01*
X87588426Y-74558669D01*
X87543437Y-74567118D01*
X82026663Y-74567118D01*
X81959624Y-74547433D01*
X81925088Y-74514241D01*
X81900045Y-74478476D01*
X81742913Y-74321344D01*
X81709428Y-74260021D01*
X81714412Y-74190329D01*
X81756284Y-74134396D01*
X81802078Y-74112986D01*
X81807480Y-74111709D01*
X81807483Y-74111709D01*
X81824466Y-74105375D01*
X81942328Y-74061415D01*
X81942327Y-74061415D01*
X81942331Y-74061414D01*
X82057546Y-73975164D01*
X82143796Y-73859949D01*
X82194091Y-73725101D01*
X82199062Y-73678860D01*
X82225799Y-73614312D01*
X82283191Y-73574464D01*
X82322351Y-73568118D01*
X87452790Y-73568118D01*
X87519829Y-73587803D01*
G37*
%TD.AperFunction*%
%TA.AperFunction,NonConductor*%
G36*
X100065111Y-69200185D02*
G01*
X100110866Y-69252989D01*
X100115774Y-69265486D01*
X100150186Y-69369334D01*
X100242288Y-69518656D01*
X100366344Y-69642712D01*
X100515666Y-69734814D01*
X100515668Y-69734814D01*
X100515669Y-69734815D01*
X100516348Y-69735132D01*
X100516735Y-69735473D01*
X100521813Y-69738605D01*
X100521277Y-69739472D01*
X100568787Y-69781304D01*
X100587939Y-69848498D01*
X100567723Y-69915379D01*
X100551625Y-69935195D01*
X100409640Y-70077180D01*
X100288884Y-70243386D01*
X100233554Y-70286051D01*
X100188566Y-70294500D01*
X96561080Y-70294500D01*
X96416092Y-70323340D01*
X96416086Y-70323342D01*
X96279508Y-70379914D01*
X96279496Y-70379921D01*
X96230269Y-70412813D01*
X96156588Y-70462044D01*
X96156580Y-70462050D01*
X91930451Y-74688181D01*
X91869128Y-74721666D01*
X91842770Y-74724500D01*
X90255043Y-74724500D01*
X90188004Y-74704815D01*
X90144558Y-74656795D01*
X90135216Y-74638461D01*
X90083382Y-74567118D01*
X90000786Y-74453434D01*
X89839066Y-74291714D01*
X89754559Y-74230316D01*
X89711896Y-74174988D01*
X89705917Y-74105375D01*
X89738523Y-74043580D01*
X89754556Y-74029685D01*
X89839066Y-73968286D01*
X90000786Y-73806566D01*
X90106100Y-73661613D01*
X90161430Y-73618949D01*
X90206418Y-73610500D01*
X92273920Y-73610500D01*
X92371462Y-73591096D01*
X92418913Y-73581658D01*
X92555495Y-73525084D01*
X92604729Y-73492186D01*
X92678416Y-73442952D01*
X96904549Y-69216819D01*
X96965872Y-69183334D01*
X96992230Y-69180500D01*
X99998072Y-69180500D01*
X100065111Y-69200185D01*
G37*
%TD.AperFunction*%
%TA.AperFunction,NonConductor*%
G36*
X87498235Y-76087803D02*
G01*
X87541681Y-76135824D01*
X87554781Y-76161536D01*
X87563252Y-76173195D01*
X87687525Y-76344242D01*
X87711005Y-76410046D01*
X87695180Y-76478100D01*
X87645074Y-76526795D01*
X87630541Y-76533308D01*
X87602670Y-76543703D01*
X87602664Y-76543706D01*
X87487455Y-76629952D01*
X87487452Y-76629955D01*
X87401206Y-76745164D01*
X87401202Y-76745171D01*
X87350908Y-76880017D01*
X87347673Y-76910112D01*
X87344501Y-76939623D01*
X87344500Y-76939635D01*
X87344500Y-77065500D01*
X87324815Y-77132539D01*
X87272011Y-77178294D01*
X87220500Y-77189500D01*
X84766080Y-77189500D01*
X84621092Y-77218340D01*
X84621082Y-77218343D01*
X84484511Y-77274912D01*
X84484498Y-77274919D01*
X84361584Y-77357048D01*
X84361580Y-77357051D01*
X82699430Y-79019200D01*
X82699424Y-79019208D01*
X82650192Y-79092888D01*
X82650193Y-79092889D01*
X82617301Y-79142116D01*
X82617294Y-79142128D01*
X82560722Y-79278706D01*
X82560720Y-79278712D01*
X82531880Y-79423699D01*
X82531880Y-87377648D01*
X82512195Y-87444687D01*
X82459391Y-87490442D01*
X82421135Y-87500938D01*
X82374896Y-87505909D01*
X82240051Y-87556202D01*
X82240044Y-87556206D01*
X82124835Y-87642452D01*
X82124832Y-87642455D01*
X82038586Y-87757664D01*
X82038582Y-87757671D01*
X81988289Y-87892513D01*
X81987012Y-87897922D01*
X81952438Y-87958638D01*
X81890527Y-87991023D01*
X81820936Y-87984796D01*
X81778654Y-87957088D01*
X81714079Y-87892513D01*
X81621519Y-87799953D01*
X81616753Y-87796615D01*
X81585755Y-87774910D01*
X81542131Y-87720332D01*
X81532880Y-87673336D01*
X81532880Y-76526638D01*
X81552565Y-76459599D01*
X81585757Y-76425063D01*
X81607204Y-76410046D01*
X81739139Y-76317665D01*
X81900047Y-76156757D01*
X81914704Y-76135824D01*
X81925088Y-76120995D01*
X81979665Y-76077370D01*
X82026663Y-76068118D01*
X87431196Y-76068118D01*
X87498235Y-76087803D01*
G37*
%TD.AperFunction*%
%TA.AperFunction,NonConductor*%
G36*
X100613050Y-66880185D02*
G01*
X100658805Y-66932989D01*
X100668749Y-67002147D01*
X100639724Y-67065703D01*
X100585017Y-67102205D01*
X100515669Y-67125185D01*
X100515666Y-67125186D01*
X100515663Y-67125187D01*
X100366342Y-67217289D01*
X100242289Y-67341342D01*
X100150187Y-67490663D01*
X100150186Y-67490666D01*
X100115776Y-67594505D01*
X100076005Y-67651949D01*
X100011490Y-67678772D01*
X99998072Y-67679500D01*
X96556080Y-67679500D01*
X96411092Y-67708340D01*
X96411086Y-67708342D01*
X96274508Y-67764914D01*
X96274496Y-67764921D01*
X96225269Y-67797813D01*
X96151588Y-67847044D01*
X96151580Y-67847050D01*
X91925451Y-72073181D01*
X91864128Y-72106666D01*
X91837770Y-72109500D01*
X90206418Y-72109500D01*
X90139379Y-72089815D01*
X90106100Y-72058386D01*
X90085342Y-72029815D01*
X90000786Y-71913434D01*
X89839066Y-71751714D01*
X89654038Y-71617283D01*
X89507174Y-71542452D01*
X89450255Y-71513450D01*
X89232748Y-71442778D01*
X89063326Y-71415944D01*
X89006854Y-71407000D01*
X88683146Y-71407000D01*
X88607849Y-71418926D01*
X88457253Y-71442778D01*
X88457250Y-71442778D01*
X88239744Y-71513450D01*
X88035961Y-71617283D01*
X87938217Y-71688299D01*
X87850934Y-71751714D01*
X87850932Y-71751716D01*
X87850931Y-71751716D01*
X87689216Y-71913431D01*
X87689214Y-71913434D01*
X87615162Y-72015359D01*
X87614693Y-72016004D01*
X87559363Y-72058669D01*
X87514375Y-72067118D01*
X82322351Y-72067118D01*
X82255312Y-72047433D01*
X82209557Y-71994629D01*
X82199061Y-71956370D01*
X82194091Y-71910134D01*
X82143797Y-71775289D01*
X82143793Y-71775282D01*
X82057547Y-71660073D01*
X82057544Y-71660070D01*
X81942335Y-71573824D01*
X81942328Y-71573820D01*
X81807482Y-71523526D01*
X81807483Y-71523526D01*
X81747883Y-71517119D01*
X81747881Y-71517118D01*
X81747873Y-71517118D01*
X81747864Y-71517118D01*
X80052129Y-71517118D01*
X80052123Y-71517119D01*
X79992516Y-71523526D01*
X79857671Y-71573820D01*
X79857664Y-71573824D01*
X79742455Y-71660070D01*
X79742452Y-71660073D01*
X79656206Y-71775282D01*
X79656202Y-71775289D01*
X79605910Y-71910131D01*
X79605909Y-71910135D01*
X79602831Y-71938757D01*
X79576095Y-72003306D01*
X79518703Y-72043154D01*
X79479543Y-72049500D01*
X76814685Y-72049500D01*
X76747646Y-72029815D01*
X76710877Y-71993322D01*
X76673984Y-71936854D01*
X76673982Y-71936852D01*
X76673979Y-71936847D01*
X76516784Y-71766087D01*
X76516779Y-71766083D01*
X76516777Y-71766081D01*
X76333634Y-71623535D01*
X76333628Y-71623531D01*
X76129504Y-71513064D01*
X76129495Y-71513061D01*
X75909984Y-71437702D01*
X75719450Y-71405908D01*
X75681049Y-71399500D01*
X75448951Y-71399500D01*
X75410550Y-71405908D01*
X75220015Y-71437702D01*
X75000504Y-71513061D01*
X75000495Y-71513064D01*
X74796371Y-71623531D01*
X74796365Y-71623535D01*
X74613222Y-71766081D01*
X74613218Y-71766085D01*
X74604866Y-71775158D01*
X74544979Y-71811148D01*
X74475141Y-71809047D01*
X74417525Y-71769522D01*
X74397455Y-71734507D01*
X74368797Y-71657671D01*
X74368793Y-71657664D01*
X74282547Y-71542455D01*
X74282544Y-71542452D01*
X74167335Y-71456206D01*
X74167328Y-71456202D01*
X74032482Y-71405908D01*
X74032483Y-71405908D01*
X73972883Y-71399501D01*
X73972881Y-71399500D01*
X73972873Y-71399500D01*
X73972864Y-71399500D01*
X72077129Y-71399500D01*
X72077123Y-71399501D01*
X72017516Y-71405908D01*
X71882671Y-71456202D01*
X71882664Y-71456206D01*
X71767455Y-71542452D01*
X71767452Y-71542455D01*
X71681206Y-71657664D01*
X71681202Y-71657671D01*
X71630908Y-71792517D01*
X71624501Y-71852116D01*
X71624500Y-71852135D01*
X71624500Y-73747870D01*
X71624501Y-73747876D01*
X71630908Y-73807483D01*
X71681202Y-73942328D01*
X71681206Y-73942335D01*
X71767452Y-74057544D01*
X71767455Y-74057547D01*
X71882664Y-74143793D01*
X71882671Y-74143797D01*
X71927618Y-74160561D01*
X72017517Y-74194091D01*
X72077127Y-74200500D01*
X72185500Y-74200499D01*
X72252539Y-74220183D01*
X72298294Y-74272987D01*
X72309500Y-74324499D01*
X72309500Y-76046095D01*
X72289815Y-76113134D01*
X72239303Y-76157814D01*
X72207366Y-76173195D01*
X72172955Y-76196656D01*
X71996782Y-76316768D01*
X71809952Y-76490121D01*
X71809950Y-76490123D01*
X71651041Y-76689388D01*
X71523608Y-76910109D01*
X71430492Y-77147362D01*
X71430490Y-77147369D01*
X71373777Y-77395845D01*
X71354732Y-77649995D01*
X71354732Y-77650004D01*
X71373777Y-77904154D01*
X71373778Y-77904157D01*
X71430492Y-78152637D01*
X71523607Y-78389888D01*
X71651041Y-78610612D01*
X71809950Y-78809877D01*
X71996783Y-78983232D01*
X72207366Y-79126805D01*
X72207371Y-79126807D01*
X72207372Y-79126808D01*
X72207373Y-79126809D01*
X72329328Y-79185538D01*
X72436992Y-79237387D01*
X72436993Y-79237387D01*
X72436996Y-79237389D01*
X72680542Y-79312513D01*
X72932565Y-79350500D01*
X73187435Y-79350500D01*
X73439458Y-79312513D01*
X73683004Y-79237389D01*
X73870688Y-79147005D01*
X73912626Y-79126809D01*
X73912626Y-79126808D01*
X73912634Y-79126805D01*
X74123217Y-78983232D01*
X74310050Y-78809877D01*
X74468959Y-78610612D01*
X74596393Y-78389888D01*
X74689508Y-78152637D01*
X74746222Y-77904157D01*
X74765268Y-77650000D01*
X74746222Y-77395843D01*
X74689508Y-77147363D01*
X74596393Y-76910112D01*
X74468959Y-76689388D01*
X74310050Y-76490123D01*
X74123217Y-76316768D01*
X73912634Y-76173195D01*
X73880696Y-76157814D01*
X73828838Y-76110992D01*
X73810500Y-76046095D01*
X73810500Y-74324499D01*
X73830185Y-74257460D01*
X73882989Y-74211705D01*
X73934500Y-74200499D01*
X73972871Y-74200499D01*
X73972872Y-74200499D01*
X74032483Y-74194091D01*
X74167331Y-74143796D01*
X74282546Y-74057546D01*
X74368796Y-73942331D01*
X74397455Y-73865493D01*
X74439326Y-73809559D01*
X74504790Y-73785141D01*
X74573063Y-73799992D01*
X74604866Y-73824843D01*
X74612302Y-73832920D01*
X74613215Y-73833912D01*
X74613222Y-73833918D01*
X74796365Y-73976464D01*
X74796371Y-73976468D01*
X74796374Y-73976470D01*
X74894701Y-74029682D01*
X74996943Y-74085013D01*
X75000497Y-74086936D01*
X75076378Y-74112986D01*
X75220015Y-74162297D01*
X75220017Y-74162297D01*
X75220019Y-74162298D01*
X75448951Y-74200500D01*
X75448952Y-74200500D01*
X75681048Y-74200500D01*
X75681049Y-74200500D01*
X75909981Y-74162298D01*
X76129503Y-74086936D01*
X76333626Y-73976470D01*
X76344144Y-73968284D01*
X76395129Y-73928600D01*
X76516784Y-73833913D01*
X76673979Y-73663153D01*
X76680914Y-73652537D01*
X76710877Y-73606678D01*
X76764023Y-73561322D01*
X76814685Y-73550500D01*
X79475806Y-73550500D01*
X79542845Y-73570185D01*
X79588600Y-73622989D01*
X79598246Y-73662285D01*
X79599146Y-73662189D01*
X79605908Y-73725101D01*
X79656202Y-73859946D01*
X79656206Y-73859953D01*
X79742452Y-73975162D01*
X79742455Y-73975165D01*
X79857664Y-74061411D01*
X79857671Y-74061415D01*
X79910927Y-74081278D01*
X79992517Y-74111709D01*
X79992527Y-74111710D01*
X79997913Y-74112983D01*
X80058631Y-74147553D01*
X80091021Y-74209461D01*
X80084799Y-74279053D01*
X80057088Y-74321343D01*
X79899951Y-74478480D01*
X79769432Y-74664883D01*
X79769431Y-74664885D01*
X79673261Y-74871120D01*
X79673258Y-74871129D01*
X79614366Y-75090920D01*
X79614364Y-75090931D01*
X79594532Y-75317616D01*
X79594532Y-75317619D01*
X79614364Y-75544304D01*
X79614366Y-75544315D01*
X79673258Y-75764106D01*
X79673261Y-75764115D01*
X79769431Y-75970350D01*
X79769432Y-75970352D01*
X79899951Y-76156755D01*
X79899952Y-76156756D01*
X79899953Y-76156757D01*
X79995562Y-76252366D01*
X80029046Y-76313687D01*
X80031880Y-76340046D01*
X80031880Y-87673336D01*
X80012195Y-87740375D01*
X79979005Y-87774910D01*
X79943243Y-87799951D01*
X79782331Y-87960862D01*
X79757292Y-87996623D01*
X79702715Y-88040248D01*
X79655717Y-88049500D01*
X77626080Y-88049500D01*
X77481092Y-88078340D01*
X77481082Y-88078343D01*
X77344509Y-88134913D01*
X77310652Y-88157536D01*
X77221579Y-88217051D01*
X77221578Y-88217052D01*
X75875451Y-89563181D01*
X75814128Y-89596666D01*
X75787770Y-89599500D01*
X74661858Y-89599500D01*
X74594819Y-89579815D01*
X74554471Y-89537500D01*
X74505531Y-89452734D01*
X74468959Y-89389388D01*
X74310050Y-89190123D01*
X74123217Y-89016768D01*
X73912634Y-88873195D01*
X73912630Y-88873193D01*
X73912627Y-88873191D01*
X73912626Y-88873190D01*
X73683006Y-88762612D01*
X73683008Y-88762612D01*
X73439466Y-88687489D01*
X73439462Y-88687488D01*
X73439458Y-88687487D01*
X73318231Y-88669214D01*
X73187440Y-88649500D01*
X73187435Y-88649500D01*
X72932565Y-88649500D01*
X72932559Y-88649500D01*
X72775609Y-88673157D01*
X72680542Y-88687487D01*
X72680539Y-88687488D01*
X72680533Y-88687489D01*
X72436992Y-88762612D01*
X72207373Y-88873190D01*
X72207372Y-88873191D01*
X71996782Y-89016768D01*
X71809952Y-89190121D01*
X71809950Y-89190123D01*
X71651041Y-89389388D01*
X71523608Y-89610109D01*
X71430492Y-89847362D01*
X71430490Y-89847369D01*
X71373777Y-90095845D01*
X71354732Y-90349995D01*
X71354732Y-90350004D01*
X71373777Y-90604154D01*
X71429404Y-90847873D01*
X71430492Y-90852637D01*
X71523607Y-91089888D01*
X71651041Y-91310612D01*
X71809950Y-91509877D01*
X71996783Y-91683232D01*
X72207366Y-91826805D01*
X72207371Y-91826807D01*
X72207372Y-91826808D01*
X72207373Y-91826809D01*
X72329328Y-91885538D01*
X72436992Y-91937387D01*
X72436993Y-91937387D01*
X72436996Y-91937389D01*
X72680542Y-92012513D01*
X72932565Y-92050500D01*
X73187435Y-92050500D01*
X73439458Y-92012513D01*
X73683004Y-91937389D01*
X73912634Y-91826805D01*
X74123217Y-91683232D01*
X74310050Y-91509877D01*
X74468959Y-91310612D01*
X74554471Y-91162500D01*
X74605038Y-91114284D01*
X74661858Y-91100500D01*
X76223920Y-91100500D01*
X76321462Y-91081096D01*
X76368913Y-91071658D01*
X76505495Y-91015084D01*
X76554729Y-90982186D01*
X76628416Y-90932952D01*
X77974549Y-89586819D01*
X78035872Y-89553334D01*
X78062230Y-89550500D01*
X79655717Y-89550500D01*
X79722756Y-89570185D01*
X79757292Y-89603377D01*
X79782334Y-89639141D01*
X79943239Y-89800046D01*
X79972946Y-89820846D01*
X80001621Y-89840924D01*
X80045247Y-89895500D01*
X80054500Y-89942500D01*
X80054500Y-94050500D01*
X80034815Y-94117539D01*
X79982011Y-94163294D01*
X79930500Y-94174500D01*
X79888208Y-94174500D01*
X79691188Y-94200439D01*
X79666560Y-94203682D01*
X79612572Y-94218148D01*
X79450606Y-94261546D01*
X79244064Y-94347099D01*
X79244054Y-94347103D01*
X79050442Y-94458885D01*
X78873074Y-94594984D01*
X78873067Y-94594990D01*
X78714990Y-94753067D01*
X78714984Y-94753074D01*
X78578885Y-94930442D01*
X78467103Y-95124054D01*
X78467099Y-95124064D01*
X78381546Y-95330606D01*
X78323682Y-95546561D01*
X78294500Y-95768208D01*
X78294500Y-95991791D01*
X78317197Y-96164183D01*
X78323682Y-96213440D01*
X78352614Y-96321415D01*
X78381546Y-96429393D01*
X78467099Y-96635935D01*
X78467103Y-96635945D01*
X78578885Y-96829557D01*
X78714984Y-97006925D01*
X78714990Y-97006932D01*
X78873067Y-97165009D01*
X78873074Y-97165015D01*
X79050442Y-97301114D01*
X79244054Y-97412896D01*
X79244055Y-97412896D01*
X79244058Y-97412898D01*
X79381758Y-97469935D01*
X79450606Y-97498453D01*
X79450607Y-97498453D01*
X79450609Y-97498454D01*
X79666560Y-97556318D01*
X79878249Y-97584187D01*
X79888200Y-97585498D01*
X79888216Y-97585500D01*
X79888223Y-97585500D01*
X81721777Y-97585500D01*
X81721784Y-97585500D01*
X81943440Y-97556318D01*
X82159391Y-97498454D01*
X82365942Y-97412898D01*
X82559558Y-97301114D01*
X82736927Y-97165014D01*
X82769071Y-97132870D01*
X91174500Y-97132870D01*
X91174501Y-97132876D01*
X91180908Y-97192483D01*
X91231202Y-97327328D01*
X91231206Y-97327335D01*
X91317452Y-97442544D01*
X91317455Y-97442547D01*
X91432664Y-97528793D01*
X91432671Y-97528797D01*
X91567517Y-97579091D01*
X91567516Y-97579091D01*
X91574444Y-97579835D01*
X91627127Y-97585500D01*
X95742872Y-97585499D01*
X95802483Y-97579091D01*
X95937331Y-97528796D01*
X96052546Y-97442546D01*
X96138796Y-97327331D01*
X96189091Y-97192483D01*
X96195500Y-97132873D01*
X96195499Y-94627128D01*
X96189091Y-94567517D01*
X96148574Y-94458886D01*
X96138797Y-94432671D01*
X96138793Y-94432664D01*
X96052547Y-94317455D01*
X96052544Y-94317452D01*
X95937335Y-94231206D01*
X95937328Y-94231202D01*
X95802482Y-94180908D01*
X95802483Y-94180908D01*
X95742883Y-94174501D01*
X95742881Y-94174500D01*
X95742873Y-94174500D01*
X95742865Y-94174500D01*
X94559500Y-94174500D01*
X94492461Y-94154815D01*
X94446706Y-94102011D01*
X94435500Y-94050500D01*
X94435500Y-91424499D01*
X94455185Y-91357460D01*
X94507989Y-91311705D01*
X94559500Y-91300499D01*
X94580371Y-91300499D01*
X94580372Y-91300499D01*
X94639983Y-91294091D01*
X94774831Y-91243796D01*
X94890046Y-91157546D01*
X94976296Y-91042331D01*
X95026591Y-90907483D01*
X95033000Y-90847873D01*
X95032999Y-89152128D01*
X95026591Y-89092517D01*
X94998338Y-89016768D01*
X94976297Y-88957671D01*
X94976293Y-88957664D01*
X94890047Y-88842455D01*
X94890044Y-88842452D01*
X94774835Y-88756206D01*
X94774828Y-88756202D01*
X94639982Y-88705908D01*
X94639983Y-88705908D01*
X94580383Y-88699501D01*
X94580381Y-88699500D01*
X94580373Y-88699500D01*
X94580364Y-88699500D01*
X92884629Y-88699500D01*
X92884623Y-88699501D01*
X92825016Y-88705908D01*
X92690171Y-88756202D01*
X92690164Y-88756206D01*
X92574955Y-88842452D01*
X92574952Y-88842455D01*
X92488706Y-88957664D01*
X92488702Y-88957671D01*
X92438408Y-89092517D01*
X92432001Y-89152116D01*
X92432001Y-89152123D01*
X92432000Y-89152135D01*
X92432000Y-90847870D01*
X92432001Y-90847876D01*
X92438408Y-90907483D01*
X92488702Y-91042328D01*
X92488706Y-91042335D01*
X92574952Y-91157544D01*
X92574955Y-91157547D01*
X92690164Y-91243793D01*
X92690171Y-91243797D01*
X92825017Y-91294091D01*
X92832562Y-91295874D01*
X92832189Y-91297450D01*
X92888298Y-91320686D01*
X92928151Y-91378075D01*
X92934500Y-91417244D01*
X92934500Y-94050500D01*
X92914815Y-94117539D01*
X92862011Y-94163294D01*
X92810500Y-94174500D01*
X91627129Y-94174500D01*
X91627123Y-94174501D01*
X91567516Y-94180908D01*
X91432671Y-94231202D01*
X91432664Y-94231206D01*
X91317455Y-94317452D01*
X91317452Y-94317455D01*
X91231206Y-94432664D01*
X91231202Y-94432671D01*
X91180908Y-94567517D01*
X91177955Y-94594990D01*
X91174501Y-94627123D01*
X91174500Y-94627135D01*
X91174500Y-97132870D01*
X82769071Y-97132870D01*
X82895014Y-97006927D01*
X83031114Y-96829558D01*
X83142898Y-96635942D01*
X83228454Y-96429391D01*
X83286318Y-96213440D01*
X83315500Y-95991784D01*
X83315500Y-95768216D01*
X83286318Y-95546560D01*
X83228454Y-95330609D01*
X83142898Y-95124058D01*
X83031114Y-94930442D01*
X82895014Y-94753073D01*
X82895009Y-94753067D01*
X82736932Y-94594990D01*
X82736925Y-94594984D01*
X82559557Y-94458885D01*
X82365945Y-94347103D01*
X82365935Y-94347099D01*
X82159393Y-94261546D01*
X82046146Y-94231202D01*
X81943440Y-94203682D01*
X81894183Y-94197197D01*
X81721791Y-94174500D01*
X81721784Y-94174500D01*
X81679500Y-94174500D01*
X81612461Y-94154815D01*
X81566706Y-94102011D01*
X81555500Y-94050500D01*
X81555500Y-89910824D01*
X81575185Y-89843785D01*
X81608379Y-89809248D01*
X81621516Y-89800049D01*
X81621515Y-89800049D01*
X81621519Y-89800047D01*
X81778654Y-89642911D01*
X81839976Y-89609428D01*
X81909667Y-89614412D01*
X81965601Y-89656283D01*
X81987009Y-89702070D01*
X81988288Y-89707480D01*
X82038582Y-89842328D01*
X82038586Y-89842335D01*
X82124832Y-89957544D01*
X82124835Y-89957547D01*
X82240044Y-90043793D01*
X82240051Y-90043797D01*
X82374897Y-90094091D01*
X82374896Y-90094091D01*
X82381824Y-90094835D01*
X82434507Y-90100500D01*
X84130252Y-90100499D01*
X84189863Y-90094091D01*
X84324711Y-90043796D01*
X84439926Y-89957546D01*
X84526176Y-89842331D01*
X84576471Y-89707483D01*
X84582880Y-89647873D01*
X84582879Y-87952128D01*
X84576471Y-87892517D01*
X84532606Y-87774910D01*
X84526177Y-87757671D01*
X84526173Y-87757664D01*
X84439927Y-87642455D01*
X84439924Y-87642452D01*
X84324715Y-87556206D01*
X84324708Y-87556202D01*
X84189863Y-87505908D01*
X84143623Y-87500937D01*
X84079073Y-87474199D01*
X84039225Y-87416806D01*
X84032880Y-87377648D01*
X84032880Y-79859849D01*
X84052565Y-79792810D01*
X84069199Y-79772168D01*
X85114548Y-78726819D01*
X85175871Y-78693334D01*
X85202229Y-78690500D01*
X87220501Y-78690500D01*
X87287540Y-78710185D01*
X87333295Y-78762989D01*
X87344501Y-78814500D01*
X87344501Y-78940376D01*
X87350908Y-78999983D01*
X87401202Y-79134828D01*
X87401206Y-79134835D01*
X87487452Y-79250044D01*
X87487455Y-79250047D01*
X87602664Y-79336293D01*
X87602671Y-79336297D01*
X87737517Y-79386591D01*
X87737516Y-79386591D01*
X87744444Y-79387335D01*
X87797127Y-79393000D01*
X89892872Y-79392999D01*
X89952483Y-79386591D01*
X90087331Y-79336296D01*
X90202546Y-79250046D01*
X90288796Y-79134831D01*
X90339091Y-78999983D01*
X90345500Y-78940373D01*
X90345500Y-78814500D01*
X90365185Y-78747461D01*
X90417989Y-78701706D01*
X90469500Y-78690500D01*
X99427770Y-78690500D01*
X99494809Y-78710185D01*
X99515451Y-78726819D01*
X100565681Y-79777049D01*
X100599166Y-79838372D01*
X100602000Y-79864730D01*
X100602000Y-88873336D01*
X100582315Y-88940375D01*
X100549125Y-88974910D01*
X100513363Y-88999951D01*
X100352451Y-89160862D01*
X100221932Y-89347265D01*
X100221931Y-89347267D01*
X100125761Y-89553502D01*
X100125758Y-89553511D01*
X100066866Y-89773302D01*
X100066864Y-89773313D01*
X100047032Y-89999998D01*
X100047032Y-90000001D01*
X100066864Y-90226686D01*
X100066866Y-90226697D01*
X100125758Y-90446488D01*
X100125761Y-90446497D01*
X100221931Y-90652732D01*
X100221932Y-90652734D01*
X100352454Y-90839141D01*
X100513358Y-91000045D01*
X100513361Y-91000047D01*
X100699766Y-91130568D01*
X100906004Y-91226739D01*
X101125808Y-91285635D01*
X101287730Y-91299801D01*
X101352498Y-91305468D01*
X101352500Y-91305468D01*
X101352502Y-91305468D01*
X101409307Y-91300498D01*
X101579192Y-91285635D01*
X101798996Y-91226739D01*
X102005234Y-91130568D01*
X102191639Y-91000047D01*
X102352547Y-90839139D01*
X102483068Y-90652734D01*
X102579239Y-90446496D01*
X102638135Y-90226692D01*
X102657968Y-90000000D01*
X102638135Y-89773308D01*
X102579239Y-89553504D01*
X102483068Y-89347266D01*
X102352547Y-89160861D01*
X102191639Y-88999953D01*
X102186873Y-88996615D01*
X102155875Y-88974910D01*
X102112251Y-88920332D01*
X102103000Y-88873336D01*
X102103000Y-79428579D01*
X102079912Y-79312513D01*
X102074159Y-79283588D01*
X102019908Y-79152617D01*
X102018265Y-79148025D01*
X102017584Y-79147005D01*
X101984686Y-79097770D01*
X101984685Y-79097768D01*
X101935456Y-79024089D01*
X101935452Y-79024084D01*
X100268421Y-77357052D01*
X100268414Y-77357046D01*
X100194729Y-77307812D01*
X100194729Y-77307813D01*
X100145491Y-77274913D01*
X100008917Y-77218343D01*
X100008907Y-77218340D01*
X99863920Y-77189500D01*
X99863918Y-77189500D01*
X90469499Y-77189500D01*
X90402460Y-77169815D01*
X90356705Y-77117011D01*
X90345499Y-77065500D01*
X90345499Y-76939629D01*
X90345498Y-76939623D01*
X90345497Y-76939616D01*
X90339091Y-76880017D01*
X90288796Y-76745169D01*
X90288795Y-76745168D01*
X90288793Y-76745164D01*
X90202547Y-76629955D01*
X90202544Y-76629952D01*
X90087335Y-76543706D01*
X90087328Y-76543702D01*
X90059459Y-76533308D01*
X90003525Y-76491437D01*
X89979108Y-76425973D01*
X89993960Y-76357700D01*
X90002463Y-76344256D01*
X90051610Y-76276612D01*
X90106941Y-76233948D01*
X90151927Y-76225500D01*
X92278920Y-76225500D01*
X92376462Y-76206096D01*
X92423913Y-76196658D01*
X92560495Y-76140084D01*
X92620003Y-76100322D01*
X92683416Y-76057952D01*
X96909549Y-71831819D01*
X96970872Y-71798334D01*
X96997230Y-71795500D01*
X100297548Y-71795500D01*
X100364587Y-71815185D01*
X100397865Y-71846613D01*
X100409641Y-71862821D01*
X100562179Y-72015359D01*
X100736701Y-72142157D01*
X100928911Y-72240092D01*
X101134074Y-72306754D01*
X101213973Y-72319408D01*
X101347134Y-72340500D01*
X101347139Y-72340500D01*
X102012866Y-72340500D01*
X102131230Y-72321752D01*
X102225926Y-72306754D01*
X102431089Y-72240092D01*
X102623299Y-72142157D01*
X102797821Y-72015359D01*
X102950359Y-71862821D01*
X103077157Y-71688299D01*
X103175092Y-71496089D01*
X103241754Y-71290926D01*
X103256752Y-71196230D01*
X103275500Y-71077866D01*
X103275500Y-70862133D01*
X103241754Y-70649077D01*
X103241754Y-70649074D01*
X103175092Y-70443911D01*
X103077157Y-70251701D01*
X102950359Y-70077179D01*
X102808375Y-69935195D01*
X102774890Y-69873872D01*
X102779874Y-69804180D01*
X102821746Y-69748247D01*
X102843657Y-69735129D01*
X102844322Y-69734817D01*
X102844334Y-69734814D01*
X102993656Y-69642712D01*
X103117712Y-69518656D01*
X103209814Y-69369334D01*
X103264999Y-69202797D01*
X103275500Y-69100009D01*
X103275499Y-67759992D01*
X103264999Y-67657203D01*
X103209814Y-67490666D01*
X103117712Y-67341344D01*
X102993656Y-67217288D01*
X102844334Y-67125186D01*
X102774983Y-67102205D01*
X102717539Y-67062433D01*
X102690716Y-66997917D01*
X102703031Y-66929142D01*
X102750574Y-66877942D01*
X102813988Y-66860500D01*
X104790500Y-66860500D01*
X104857539Y-66880185D01*
X104903294Y-66932989D01*
X104914500Y-66984500D01*
X104914500Y-150735500D01*
X104894815Y-150802539D01*
X104842011Y-150848294D01*
X104790500Y-150859500D01*
X69639500Y-150859500D01*
X69572461Y-150839815D01*
X69526706Y-150787011D01*
X69515500Y-150735500D01*
X69515500Y-135140000D01*
X74409396Y-135140000D01*
X74429778Y-135398990D01*
X74490427Y-135651610D01*
X74589843Y-135891623D01*
X74589845Y-135891627D01*
X74589846Y-135891628D01*
X74725588Y-136113140D01*
X74894311Y-136310689D01*
X75091860Y-136479412D01*
X75313372Y-136615154D01*
X75313374Y-136615154D01*
X75313376Y-136615156D01*
X75374693Y-136640554D01*
X75553390Y-136714573D01*
X75806006Y-136775221D01*
X76065000Y-136795604D01*
X76323994Y-136775221D01*
X76576610Y-136714573D01*
X76816628Y-136615154D01*
X77038140Y-136479412D01*
X77235689Y-136310689D01*
X77404412Y-136113140D01*
X77540154Y-135891628D01*
X77639573Y-135651610D01*
X77700221Y-135398994D01*
X77720604Y-135140000D01*
X77700221Y-134881006D01*
X77639573Y-134628390D01*
X77540154Y-134388372D01*
X77404412Y-134166860D01*
X77235689Y-133969311D01*
X77038140Y-133800588D01*
X76816628Y-133664846D01*
X76816627Y-133664845D01*
X76816623Y-133664843D01*
X76650627Y-133596086D01*
X76576610Y-133565427D01*
X76576611Y-133565427D01*
X76438921Y-133532370D01*
X76323994Y-133504779D01*
X76323992Y-133504778D01*
X76323991Y-133504778D01*
X76065000Y-133484396D01*
X75806009Y-133504778D01*
X75553389Y-133565427D01*
X75313376Y-133664843D01*
X75091859Y-133800588D01*
X74894311Y-133969311D01*
X74725588Y-134166859D01*
X74589843Y-134388376D01*
X74490427Y-134628389D01*
X74429778Y-134881009D01*
X74409396Y-135140000D01*
X69515500Y-135140000D01*
X69515500Y-121660000D01*
X96759396Y-121660000D01*
X96779778Y-121918990D01*
X96840427Y-122171610D01*
X96939843Y-122411623D01*
X96939845Y-122411627D01*
X96939846Y-122411628D01*
X97075588Y-122633140D01*
X97244311Y-122830689D01*
X97441860Y-122999412D01*
X97663372Y-123135154D01*
X97663374Y-123135154D01*
X97663376Y-123135156D01*
X97724693Y-123160554D01*
X97903390Y-123234573D01*
X98156006Y-123295221D01*
X98415000Y-123315604D01*
X98673994Y-123295221D01*
X98926610Y-123234573D01*
X99166628Y-123135154D01*
X99388140Y-122999412D01*
X99585689Y-122830689D01*
X99754412Y-122633140D01*
X99890154Y-122411628D01*
X99989573Y-122171610D01*
X100050221Y-121918994D01*
X100070604Y-121660000D01*
X100050221Y-121401006D01*
X99989573Y-121148390D01*
X99890154Y-120908372D01*
X99754412Y-120686860D01*
X99585689Y-120489311D01*
X99388140Y-120320588D01*
X99166628Y-120184846D01*
X99166627Y-120184845D01*
X99166623Y-120184843D01*
X99000627Y-120116086D01*
X98926610Y-120085427D01*
X98926611Y-120085427D01*
X98788921Y-120052370D01*
X98673994Y-120024779D01*
X98673992Y-120024778D01*
X98673991Y-120024778D01*
X98415000Y-120004396D01*
X98156009Y-120024778D01*
X97903389Y-120085427D01*
X97663376Y-120184843D01*
X97441859Y-120320588D01*
X97244311Y-120489311D01*
X97075588Y-120686859D01*
X96939843Y-120908376D01*
X96840427Y-121148389D01*
X96779778Y-121401009D01*
X96759396Y-121660000D01*
X69515500Y-121660000D01*
X69515500Y-108170000D01*
X74409396Y-108170000D01*
X74429778Y-108428990D01*
X74490427Y-108681610D01*
X74589843Y-108921623D01*
X74589845Y-108921627D01*
X74589846Y-108921628D01*
X74725588Y-109143140D01*
X74894311Y-109340689D01*
X75091860Y-109509412D01*
X75313372Y-109645154D01*
X75313374Y-109645154D01*
X75313376Y-109645156D01*
X75374693Y-109670554D01*
X75553390Y-109744573D01*
X75806006Y-109805221D01*
X76065000Y-109825604D01*
X76323994Y-109805221D01*
X76576610Y-109744573D01*
X76816628Y-109645154D01*
X77038140Y-109509412D01*
X77235689Y-109340689D01*
X77404412Y-109143140D01*
X77540154Y-108921628D01*
X77639573Y-108681610D01*
X77700221Y-108428994D01*
X77720604Y-108170000D01*
X77700221Y-107911006D01*
X77639573Y-107658390D01*
X77540154Y-107418372D01*
X77404412Y-107196860D01*
X77235689Y-106999311D01*
X77038140Y-106830588D01*
X76816628Y-106694846D01*
X76816627Y-106694845D01*
X76816623Y-106694843D01*
X76650627Y-106626086D01*
X76576610Y-106595427D01*
X76576611Y-106595427D01*
X76438921Y-106562370D01*
X76323994Y-106534779D01*
X76323992Y-106534778D01*
X76323991Y-106534778D01*
X76065000Y-106514396D01*
X75806009Y-106534778D01*
X75553389Y-106595427D01*
X75313376Y-106694843D01*
X75091859Y-106830588D01*
X74894311Y-106999311D01*
X74725588Y-107196859D01*
X74589843Y-107418376D01*
X74490427Y-107658389D01*
X74429778Y-107911009D01*
X74409396Y-108170000D01*
X69515500Y-108170000D01*
X69515500Y-66984500D01*
X69535185Y-66917461D01*
X69587989Y-66871706D01*
X69639500Y-66860500D01*
X100546011Y-66860500D01*
X100613050Y-66880185D01*
G37*
%TD.AperFunction*%
D25*
X69015000Y-66360000D02*
X105415000Y-66360000D01*
X105415000Y-151360000D02*
X105415000Y-66360000D01*
X69015000Y-151360000D02*
X69015000Y-66360000D01*
X69015000Y-151360000D02*
X105415000Y-151360000D01*
X103415000Y-151360000D02*
X105415000Y-151360000D01*
X71015000Y-151360000D02*
X69015000Y-151360000D01*
M02*
